<svg width="32" height="32" viewBox="0 0 32 32" fill="none" xmlns="http://www.w3.org/2000/svg">
<path d="M25.3606 21.7377L21.3335 29.3333M25.3606 21.7377H21.3335M25.3606 21.7377C26.3799 19.4666 26.8896 18.331 26.574 17.2982C26.544 17.2 26.5087 17.1037 26.4685 17.0098C26.0446 16.0213 24.9452 15.545 22.7465 14.5925L18.9349 12.9412C17.4865 12.3137 16.7622 12 16.0002 12C15.2381 12 14.5139 12.3137 13.0654 12.9412L9.25383 14.5925C7.0551 15.545 5.95574 16.0213 5.53187 17.0098C5.49158 17.1037 5.45636 17.2 5.42637 17.2982C5.11073 18.331 5.62041 19.4666 6.63977 21.7377M10.6668 29.3333L6.63977 21.7377M6.63977 21.7377H10.6668" stroke="#ABB2BE" stroke-width="2" stroke-linecap="round" stroke-linejoin="round"/>
<path d="M24 14.6666V13.6C24 11.5887 24 10.583 23.219 9.95815C22.4379 9.33331 21.1808 9.33331 18.6667 9.33331H13.3333C10.8192 9.33331 9.5621 9.33331 8.78105 9.95815C8 10.583 8 11.5887 8 13.6V14.6666" stroke="#ABB2BE" stroke-width="2" stroke-linecap="round" stroke-linejoin="round"/>
<path d="M21.3332 9.33331V8.53331C21.3332 7.02482 21.3332 6.27057 20.8125 5.80194C20.2918 5.33331 19.4537 5.33331 17.7776 5.33331H14.2221C12.546 5.33331 11.7079 5.33331 11.1872 5.80194C10.6665 6.27057 10.6665 7.02482 10.6665 8.53331V9.33331" stroke="#ABB2BE" stroke-width="2" stroke-linecap="round" stroke-linejoin="round"/>
<path d="M13.3335 5.33335V2.66669" stroke="#ABB2BE" stroke-width="2" stroke-linecap="round" stroke-linejoin="round"/>
<path d="M18.6665 5.33335V2.66669" stroke="#ABB2BE" stroke-width="2" stroke-linecap="round" stroke-linejoin="round"/>
<path d="M16 25.3333V13.3333" stroke="#ABB2BE" stroke-width="2" stroke-linecap="round" stroke-linejoin="round"/>
<path d="M10.6665 29.3333H21.3332" stroke="#ABB2BE" stroke-width="2" stroke-linecap="round" stroke-linejoin="round"/>
</svg>
