<svg width="24" height="24" viewBox="0 0 24 24" fill="none" xmlns="http://www.w3.org/2000/svg">
<path d="M12.0229 17.2158C11.7463 14.1491 14.0022 11.445 17.0688 11.1636" stroke="#9E9E9E" stroke-width="1.15257" stroke-linecap="round" stroke-linejoin="round"/>
<path d="M16.6582 12.3322V11.1685V10L17.6693 10.5866L18.6756 11.1685L17.6693 11.7503L16.6582 12.3322Z" stroke="#9E9E9E" stroke-width="1.15257" stroke-linecap="round" stroke-linejoin="round"/>
<path d="M15 18C15 18.75 15.21 19.46 15.58 20.06C16.27 21.22 17.54 22 19 22C20.46 22 21.73 21.22 22.42 20.06C22.79 19.46 23 18.75 23 18C23 15.79 21.21 14 19 14C16.79 14 15 15.79 15 18Z" stroke="#9E9E9E" stroke-width="1.5" stroke-miterlimit="10" stroke-linecap="round" stroke-linejoin="round"/>
<path d="M22 15V10.375C22 7.3125 20 6 17 6H7C4 6 2 7.3125 2 10.375V15.625C2 18.6875 4 20 7 20H15.5" stroke="#9E9E9E" stroke-width="1.5" stroke-miterlimit="10" stroke-linecap="round" stroke-linejoin="round"/>
<path d="M19.25 17V17.93C19.25 18.28 19.07 18.61 18.76 18.79L18 19.25" stroke="#9E9E9E" stroke-width="1.5" stroke-miterlimit="10" stroke-linecap="round" stroke-linejoin="round"/>
<path d="M8 6V5.2C8 3.43 8 2 11.2 2H12.8C16 2 16 3.43 16 5.2V6" stroke="#9E9E9E" stroke-width="1.5" stroke-miterlimit="10" stroke-linecap="round" stroke-linejoin="round"/>
</svg>
