<svg width="24" height="24" viewBox="0 0 24 24" fill="none" xmlns="http://www.w3.org/2000/svg">
<path d="M12.1468 10.9641C12.0552 10.9549 11.9452 10.9549 11.8443 10.9641C9.66268 10.8908 7.93018 9.10325 7.93018 6.90325C7.93018 4.65742 9.74518 2.83325 12.0002 2.83325C14.246 2.83325 16.0702 4.65742 16.0702 6.90325C16.061 9.10325 14.3285 10.8908 12.1468 10.9641Z" stroke="#9E9E9E" stroke-width="1.5" stroke-linecap="round" stroke-linejoin="round"/>
<path d="M7.56316 14.3467C5.34483 15.8317 5.34483 18.2517 7.56316 19.7276C10.084 21.4142 14.2182 21.4142 16.739 19.7276C18.9573 18.2426 18.9573 15.8226 16.739 14.3467C14.2273 12.6692 10.0932 12.6692 7.56316 14.3467Z" stroke="#9E9E9E" stroke-width="1.5" stroke-linecap="round" stroke-linejoin="round"/>
</svg>
