<svg width="32" height="32" viewBox="0 0 32 32" fill="none" xmlns="http://www.w3.org/2000/svg">
<path d="M1.3335 12.9334H10.3243C10.6744 12.9334 11.0129 12.7933 11.2788 12.5386L15.0457 8.92821C15.5949 8.40178 16.4054 8.40178 16.9547 8.92821L20.7216 12.5386C20.9874 12.7933 21.3259 12.9334 21.6761 12.9334H30.6668" stroke="#ABB2BE" stroke-width="2" stroke-linecap="round" stroke-linejoin="round"/>
<path d="M2.7998 12.9334L5.67594 6.22242C6.9396 3.2739 7.86036 2.66675 11.0683 2.66675H20.9313C24.1392 2.66675 25.06 3.2739 26.3237 6.22242L29.1998 12.9334" stroke="#ABB2BE" stroke-width="2" stroke-linecap="round" stroke-linejoin="round"/>
<path d="M2.7998 12.9334V29.0667" stroke="#ABB2BE" stroke-width="2" stroke-linecap="round" stroke-linejoin="round"/>
<path d="M29.2002 12.9334V29.0667" stroke="#ABB2BE" stroke-width="2" stroke-linecap="round" stroke-linejoin="round"/>
<path d="M1.3335 29.0667L30.6668 29.0667" stroke="#ABB2BE" stroke-width="2" stroke-linecap="round" stroke-linejoin="round"/>
<path d="M16.0115 14.4001L15.9983 14.4001" stroke="#ABB2BE" stroke-width="2" stroke-linecap="round" stroke-linejoin="round"/>
<path d="M12.3335 29.0667V22.4667C12.3335 21.2517 13.3185 20.2667 14.5335 20.2667H17.4668C18.6819 20.2667 19.6668 21.2517 19.6668 22.4667V29.0667" stroke="#ABB2BE" stroke-width="2" stroke-linecap="round" stroke-linejoin="round"/>
<path d="M7.2002 18.8H8.66686" stroke="#ABB2BE" stroke-width="2" stroke-linecap="round" stroke-linejoin="round"/>
<path d="M23.3335 18.8L24.8002 18.8" stroke="#ABB2BE" stroke-width="2" stroke-linecap="round" stroke-linejoin="round"/>
</svg>
